<svg xmlns="http://www.w3.org/2000/svg" viewBox="0 0 32 32"><rect width="32" height="32" fill="#FFF"/><rect x="3" y="3" width="26" height="26" fill="none" stroke="#111" stroke-width="1.5" opacity="0.95"/><line x1="3" y1="17.92635089792311" x2="29" y2="17.92635089792311" stroke="#111" stroke-width="0.5" opacity="0.6"/><line x1="12.837306400761008" y1="3" x2="12.837306400761008" y2="17.92635089792311" stroke="#111" stroke-width="0.5" opacity="0.6"/><line x1="3" y1="8.706225255042767" x2="12.837306400761008" y2="8.706225255042767" stroke="#111" stroke-width="0.5" opacity="0.6"/><line x1="3" y1="14.697572090363748" x2="12.837306400761008" y2="14.697572090363748" stroke="#111" stroke-width="0.5" opacity="0.6"/><rect x="3" y="8.706225255042767" width="9.837306400761008" height="5.9913468353209804" fill="#E2231A" opacity="0.90"/><rect x="3" y="14.697572090363748" width="9.837306400761008" height="3.2287788075593635" fill="#F5D522" opacity="0.52"/><line x1="22.17810739059812" y1="3" x2="22.17810739059812" y2="17.92635089792311" stroke="#111" stroke-width="0.5" opacity="0.6"/><line x1="16.985320532562227" y1="3" x2="16.985320532562227" y2="17.92635089792311" stroke="#111" stroke-width="0.5" opacity="0.6"/><rect x="12.837306400761008" y="3" width="4.148014131801219" height="14.926350897923111" fill="#1D4F9C" opacity="0.57"/><line x1="16.62354523986578" y1="17.92635089792311" x2="16.62354523986578" y2="29" stroke="#111" stroke-width="0.5" opacity="0.6"/><line x1="3" y1="25.163810822893225" x2="16.62354523986578" y2="25.163810822893225" stroke="#111" stroke-width="0.5" opacity="0.6"/><rect x="3" y="17.92635089792311" width="13.62354523986578" height="7.237459924970114" fill="#E2231A" opacity="0.83"/><rect x="3" y="25.163810822893225" width="13.62354523986578" height="3.8361891771067747" fill="#F5D522" opacity="0.53"/><line x1="22.40181716142628" y1="17.92635089792311" x2="22.40181716142628" y2="29" stroke="#111" stroke-width="0.5" opacity="0.6"/><rect x="16.62354523986578" y="17.92635089792311" width="5.778271921560499" height="11.073649102076889" fill="#E2231A" opacity="0.42"/><rect x="22.40181716142628" y="17.92635089792311" width="6.59818283857372" height="11.073649102076889" fill="#1D4F9C" opacity="0.81"/></svg>